<?xml version='1.0' encoding='utf-8'?>
<svg height="217.64mm" viewBox="0.0 0.0 190.32 217.64" width="190.32mm" xmlns="http://www.w3.org/2000/svg" xmlns:cc="http://creativecommons.org/ns#" xmlns:dc="http://purl.org/dc/elements/1.1/" xmlns:inkscape="http://www.inkscape.org/namespaces/inkscape" xmlns:rdf="http://www.w3.org/1999/02/22-rdf-syntax-ns#" xmlns:svg="http://www.w3.org/2000/svg" xmlns:xlink="http://www.w3.org/1999/xlink">
<!--
ClosedBox - Fully closed box


This box is more of a building block than a finished item.
Use a vector graphics program (like Inkscape) to add holes or adjust the base
plate.

See BasedBox for variant with a base.


Created with Boxes.py (https://boxes.hackerspace-bamberg.de/)
Creation date: 2024-12-10 09:46:59
Command line (remove spaces between dashes): boxes ClosedBox - -FingerJoint_finger=1.0 - -x=76 - -y=57 - -h=50 - -outside=0 - -thickness=4.0 - -burn=0.08
Url: https://boxes.hackerspace-bamberg.de/ClosedBox?FingerJoint_style=rectangular&FingerJoint_surroundingspaces=2.0&FingerJoint_bottom_lip=0.0&FingerJoint_edge_width=1.0&FingerJoint_extra_length=0.0&FingerJoint_finger=1.0&FingerJoint_play=0.0&FingerJoint_space=2.0&FingerJoint_width=1.0&x=76&y=57&h=50&outside=0&thickness=4.0&format=svg&tabs=0.0&qr_code=0&debug=0&labels=0&labels=1&reference=100.0&inner_corners=loop&burn=0.08&language=en&render=2
Url short: https://boxes.hackerspace-bamberg.de/ClosedBox?FingerJoint_finger=1.0&x=76&y=57&h=50&outside=0&thickness=4.0&burn=0.08
SettingsUrl: https://boxes.hackerspace-bamberg.de/ClosedBox?FingerJoint_style=rectangular&FingerJoint_surroundingspaces=2.0&FingerJoint_bottom_lip=0.0&FingerJoint_edge_width=1.0&FingerJoint_extra_length=0.0&FingerJoint_finger=1.0&FingerJoint_play=0.0&FingerJoint_space=2.0&FingerJoint_width=1.0&x=76&y=57&h=50&outside=0&thickness=4.0&format=svg&tabs=0.0&qr_code=0&debug=0&labels=0&labels=1&reference=100.0&inner_corners=loop&burn=0.08&language=en&render=2
SettingsUrl short: https://boxes.hackerspace-bamberg.de/ClosedBox?FingerJoint_finger=1.0&x=76&y=57&h=50&outside=0&thickness=4.0&burn=0.08
-->
<title>ClosedBox</title>
<metadata>
<rdf:RDF><cc:Work>
<dc:title>Box - ClosedBox</dc:title>
<dc:date>2024-12-10 09:46:59</dc:date>
<dc:source>https://boxes.hackerspace-bamberg.de/ClosedBox?FingerJoint_style=rectangular&amp;FingerJoint_surroundingspaces=2.0&amp;FingerJoint_bottom_lip=0.0&amp;FingerJoint_edge_width=1.0&amp;FingerJoint_extra_length=0.0&amp;FingerJoint_finger=1.0&amp;FingerJoint_play=0.0&amp;FingerJoint_space=2.0&amp;FingerJoint_width=1.0&amp;x=76&amp;y=57&amp;h=50&amp;outside=0&amp;thickness=4.0&amp;format=svg&amp;tabs=0.0&amp;qr_code=0&amp;debug=0&amp;labels=0&amp;labels=1&amp;reference=100.0&amp;inner_corners=loop&amp;burn=0.08&amp;language=en&amp;render=2</dc:source>
<dc:source>https://boxes.hackerspace-bamberg.de/ClosedBox?FingerJoint_finger=1.0&amp;x=76&amp;y=57&amp;h=50&amp;outside=0&amp;thickness=4.0&amp;burn=0.08</dc:source>
<dc:description>Fully closed box

This box is more of a building block than a finished item.
Use a vector graphics program (like Inkscape) to add holes or adjust the base
plate.

See BasedBox for variant with a base.

Created with Boxes.py (https://boxes.hackerspace-bamberg.de/)
Command line: boxes ClosedBox --FingerJoint_style=rectangular --FingerJoint_surroundingspaces=2.0 --FingerJoint_bottom_lip=0.0 --FingerJoint_edge_width=1.0 --FingerJoint_extra_length=0.0 --FingerJoint_finger=1.0 --FingerJoint_play=0.0 --FingerJoint_space=2.0 --FingerJoint_width=1.0 --x=76 --y=57 --h=50 --outside=0 --thickness=4.0 --format=svg --tabs=0.0 --qr_code=0 --debug=0 --labels=0 --labels=1 --reference=100.0 --inner_corners=loop --burn=0.08
Command line short: boxes ClosedBox --FingerJoint_finger=1.0 --x=76 --y=57 --h=50 --outside=0 --thickness=4.0 --burn=0.08
Url: https://boxes.hackerspace-bamberg.de/ClosedBox?FingerJoint_style=rectangular&amp;FingerJoint_surroundingspaces=2.0&amp;FingerJoint_bottom_lip=0.0&amp;FingerJoint_edge_width=1.0&amp;FingerJoint_extra_length=0.0&amp;FingerJoint_finger=1.0&amp;FingerJoint_play=0.0&amp;FingerJoint_space=2.0&amp;FingerJoint_width=1.0&amp;x=76&amp;y=57&amp;h=50&amp;outside=0&amp;thickness=4.0&amp;format=svg&amp;tabs=0.0&amp;qr_code=0&amp;debug=0&amp;labels=0&amp;labels=1&amp;reference=100.0&amp;inner_corners=loop&amp;burn=0.08&amp;language=en&amp;render=2
Url short: https://boxes.hackerspace-bamberg.de/ClosedBox?FingerJoint_finger=1.0&amp;x=76&amp;y=57&amp;h=50&amp;outside=0&amp;thickness=4.0&amp;burn=0.08
SettingsUrl: https://boxes.hackerspace-bamberg.de/ClosedBox?FingerJoint_style=rectangular&amp;FingerJoint_surroundingspaces=2.0&amp;FingerJoint_bottom_lip=0.0&amp;FingerJoint_edge_width=1.0&amp;FingerJoint_extra_length=0.0&amp;FingerJoint_finger=1.0&amp;FingerJoint_play=0.0&amp;FingerJoint_space=2.0&amp;FingerJoint_width=1.0&amp;x=76&amp;y=57&amp;h=50&amp;outside=0&amp;thickness=4.0&amp;format=svg&amp;tabs=0.0&amp;qr_code=0&amp;debug=0&amp;labels=0&amp;labels=1&amp;reference=100.0&amp;inner_corners=loop&amp;burn=0.08&amp;language=en&amp;render=2
SettingsUrl short: https://boxes.hackerspace-bamberg.de/ClosedBox?FingerJoint_finger=1.0&amp;x=76&amp;y=57&amp;h=50&amp;outside=0&amp;thickness=4.0&amp;burn=0.08
</dc:description>
</cc:Work></rdf:RDF></metadata>
<g id="p-0" style="fill:none;stroke-linecap:round;stroke-linejoin:round;">
  <path d="M 10.080 207.640 H 110.080 V 197.640 H 10.080 V 207.640 Z" stroke="rgb(0,0,0)" stroke-width="0.16" />
  <text dominant-baseline="hanging" font-size="6px" style="font-family: sans-serif ; font-weight: normal; font-style: normal; fill: rgb(255,0,0)" text-anchor="middle" transform="matrix( 1.000 0.000 0.000 1.000 60.080 199.640 )">100.0mm, burn:0.08mm</text>
</g>
<g id="p-1" style="fill:none;stroke-linecap:round;stroke-linejoin:round;">
  <text dominant-baseline="hanging" font-size="4px" style="font-family: sans-serif ; font-weight: normal; font-style: normal; fill: rgb(255,0,0)" text-anchor="middle" transform="matrix( 1.000 0.000 0.000 1.000 52.080 164.480 )">Wall 1</text><path d="M 14.080 195.480 H 26.080 C 26.124 195.480 26.160 195.444 26.160 195.400 V 191.480 C 26.160 191.400 26.080 191.480 26.160 191.480 H 30.000 C 30.080 191.480 30.000 191.400 30.000 191.480 V 195.400 C 30.000 195.444 30.036 195.480 30.080 195.480 H 38.080 C 38.124 195.480 38.160 195.444 38.160 195.400 V 191.480 C 38.160 191.400 38.080 191.480 38.160 191.480 H 42.000 C 42.080 191.480 42.000 191.400 42.000 191.480 V 195.400 C 42.000 195.444 42.036 195.480 42.080 195.480 H 50.080 C 50.124 195.480 50.160 195.444 50.160 195.400 V 191.480 C 50.160 191.400 50.080 191.480 50.160 191.480 H 54.000 C 54.080 191.480 54.000 191.400 54.000 191.480 V 195.400 C 54.000 195.444 54.036 195.480 54.080 195.480 H 62.080 C 62.124 195.480 62.160 195.444 62.160 195.400 V 191.480 C 62.160 191.400 62.080 191.480 62.160 191.480 H 66.000 C 66.080 191.480 66.000 191.400 66.000 191.480 V 195.400 C 66.000 195.444 66.036 195.480 66.080 195.480 H 74.080 C 74.124 195.480 74.160 195.444 74.160 195.400 V 191.480 C 74.160 191.400 74.080 191.480 74.160 191.480 H 78.000 C 78.080 191.480 78.000 191.400 78.000 191.480 V 195.400 C 78.000 195.444 78.036 195.480 78.080 195.480 H 90.080 H 94.080 C 94.124 195.480 94.160 195.444 94.160 195.400 V 191.400 V 180.400 C 94.160 180.356 94.124 180.320 94.080 180.320 H 90.160 C 90.080 180.320 90.160 180.400 90.160 180.320 V 176.480 C 90.160 176.400 90.080 176.480 90.160 176.480 H 94.080 C 94.124 176.480 94.160 176.444 94.160 176.400 V 168.400 C 94.160 168.356 94.124 168.320 94.080 168.320 H 90.160 C 90.080 168.320 90.160 168.400 90.160 168.320 V 164.480 C 90.160 164.400 90.080 164.480 90.160 164.480 H 94.080 C 94.124 164.480 94.160 164.444 94.160 164.400 V 156.400 C 94.160 156.356 94.124 156.320 94.080 156.320 H 90.160 C 90.080 156.320 90.160 156.400 90.160 156.320 V 152.480 C 90.160 152.400 90.080 152.480 90.160 152.480 H 94.080 C 94.124 152.480 94.160 152.444 94.160 152.400 V 141.400 V 137.400 C 94.160 137.356 94.124 137.320 94.080 137.320 H 90.080 H 78.080 C 78.036 137.320 78.000 137.356 78.000 137.400 V 141.320 C 78.000 141.400 78.080 141.320 78.000 141.320 H 74.160 C 74.080 141.320 74.160 141.400 74.160 141.320 V 137.400 C 74.160 137.356 74.124 137.320 74.080 137.320 H 66.080 C 66.036 137.320 66.000 137.356 66.000 137.400 V 141.320 C 66.000 141.400 66.080 141.320 66.000 141.320 H 62.160 C 62.080 141.320 62.160 141.400 62.160 141.320 V 137.400 C 62.160 137.356 62.124 137.320 62.080 137.320 H 54.080 C 54.036 137.320 54.000 137.356 54.000 137.400 V 141.320 C 54.000 141.400 54.080 141.320 54.000 141.320 H 50.160 C 50.080 141.320 50.160 141.400 50.160 141.320 V 137.400 C 50.160 137.356 50.124 137.320 50.080 137.320 H 42.080 C 42.036 137.320 42.000 137.356 42.000 137.400 V 141.320 C 42.000 141.400 42.080 141.320 42.000 141.320 H 38.160 C 38.080 141.320 38.160 141.400 38.160 141.320 V 137.400 C 38.160 137.356 38.124 137.320 38.080 137.320 H 30.080 C 30.036 137.320 30.000 137.356 30.000 137.400 V 141.320 C 30.000 141.400 30.080 141.320 30.000 141.320 H 26.160 C 26.080 141.320 26.160 141.400 26.160 141.320 V 137.400 C 26.160 137.356 26.124 137.320 26.080 137.320 H 14.080 H 10.080 C 10.036 137.320 10.000 137.356 10.000 137.400 V 141.400 V 152.400 C 10.000 152.444 10.036 152.480 10.080 152.480 H 14.000 C 14.080 152.480 14.000 152.400 14.000 152.480 V 156.320 C 14.000 156.400 14.080 156.320 14.000 156.320 H 10.080 C 10.036 156.320 10.000 156.356 10.000 156.400 V 164.400 C 10.000 164.444 10.036 164.480 10.080 164.480 H 14.000 C 14.080 164.480 14.000 164.400 14.000 164.480 V 168.320 C 14.000 168.400 14.080 168.320 14.000 168.320 H 10.080 C 10.036 168.320 10.000 168.356 10.000 168.400 V 176.400 C 10.000 176.444 10.036 176.480 10.080 176.480 H 14.000 C 14.080 176.480 14.000 176.400 14.000 176.480 V 180.320 C 14.000 180.400 14.080 180.320 14.000 180.320 H 10.080 C 10.036 180.320 10.000 180.356 10.000 180.400 V 191.400 V 195.400 C 10.000 195.444 10.036 195.480 10.080 195.480 H 14.080" stroke="rgb(0,0,0)" stroke-width="0.16" />
</g>
<g id="p-2" style="fill:none;stroke-linecap:round;stroke-linejoin:round;">
  <text dominant-baseline="hanging" font-size="4px" style="font-family: sans-serif ; font-weight: normal; font-style: normal; fill: rgb(255,0,0)" text-anchor="middle" transform="matrix( 1.000 0.000 0.000 1.000 128.740 164.480 )">Wall 2</text><path d="M 100.240 195.480 H 108.740 C 108.784 195.480 108.820 195.444 108.820 195.400 V 191.480 C 108.820 191.400 108.740 191.480 108.820 191.480 H 112.660 C 112.740 191.480 112.660 191.400 112.660 191.480 V 195.400 C 112.660 195.444 112.696 195.480 112.740 195.480 H 120.740 C 120.784 195.480 120.820 195.444 120.820 195.400 V 191.480 C 120.820 191.400 120.740 191.480 120.820 191.480 H 124.660 C 124.740 191.480 124.660 191.400 124.660 191.480 V 195.400 C 124.660 195.444 124.696 195.480 124.740 195.480 H 132.740 C 132.784 195.480 132.820 195.444 132.820 195.400 V 191.480 C 132.820 191.400 132.740 191.480 132.820 191.480 H 136.660 C 136.740 191.480 136.660 191.400 136.660 191.480 V 195.400 C 136.660 195.444 136.696 195.480 136.740 195.480 H 144.740 C 144.784 195.480 144.820 195.444 144.820 195.400 V 191.480 C 144.820 191.400 144.740 191.480 144.820 191.480 H 148.660 C 148.740 191.480 148.660 191.400 148.660 191.480 V 195.400 C 148.660 195.444 148.696 195.480 148.740 195.480 H 157.240 C 157.284 195.480 157.320 195.444 157.320 195.400 V 191.400 V 180.480 C 157.320 180.400 157.240 180.480 157.320 180.480 H 161.240 C 161.284 180.480 161.320 180.444 161.320 180.400 V 176.400 C 161.320 176.356 161.284 176.320 161.240 176.320 H 157.320 C 157.240 176.320 157.320 176.400 157.320 176.320 V 168.480 C 157.320 168.400 157.240 168.480 157.320 168.480 H 161.240 C 161.284 168.480 161.320 168.444 161.320 168.400 V 164.400 C 161.320 164.356 161.284 164.320 161.240 164.320 H 157.320 C 157.240 164.320 157.320 164.400 157.320 164.320 V 156.480 C 157.320 156.400 157.240 156.480 157.320 156.480 H 161.240 C 161.284 156.480 161.320 156.444 161.320 156.400 V 152.400 C 161.320 152.356 161.284 152.320 161.240 152.320 H 157.320 C 157.240 152.320 157.320 152.400 157.320 152.320 V 141.400 V 137.400 C 157.320 137.356 157.284 137.320 157.240 137.320 H 148.740 C 148.696 137.320 148.660 137.356 148.660 137.400 V 141.320 C 148.660 141.400 148.740 141.320 148.660 141.320 H 144.820 C 144.740 141.320 144.820 141.400 144.820 141.320 V 137.400 C 144.820 137.356 144.784 137.320 144.740 137.320 H 136.740 C 136.696 137.320 136.660 137.356 136.660 137.400 V 141.320 C 136.660 141.400 136.740 141.320 136.660 141.320 H 132.820 C 132.740 141.320 132.820 141.400 132.820 141.320 V 137.400 C 132.820 137.356 132.784 137.320 132.740 137.320 H 124.740 C 124.696 137.320 124.660 137.356 124.660 137.400 V 141.320 C 124.660 141.400 124.740 141.320 124.660 141.320 H 120.820 C 120.740 141.320 120.820 141.400 120.820 141.320 V 137.400 C 120.820 137.356 120.784 137.320 120.740 137.320 H 112.740 C 112.696 137.320 112.660 137.356 112.660 137.400 V 141.320 C 112.660 141.400 112.740 141.320 112.660 141.320 H 108.820 C 108.740 141.320 108.820 141.400 108.820 141.320 V 137.400 C 108.820 137.356 108.784 137.320 108.740 137.320 H 100.240 C 100.196 137.320 100.160 137.356 100.160 137.400 V 141.400 V 152.320 C 100.160 152.400 100.240 152.320 100.160 152.320 H 96.240 C 96.196 152.320 96.160 152.356 96.160 152.400 V 156.400 C 96.160 156.444 96.196 156.480 96.240 156.480 H 100.160 C 100.240 156.480 100.160 156.400 100.160 156.480 V 164.320 C 100.160 164.400 100.240 164.320 100.160 164.320 H 96.240 C 96.196 164.320 96.160 164.356 96.160 164.400 V 168.400 C 96.160 168.444 96.196 168.480 96.240 168.480 H 100.160 C 100.240 168.480 100.160 168.400 100.160 168.480 V 176.320 C 100.160 176.400 100.240 176.320 100.160 176.320 H 96.240 C 96.196 176.320 96.160 176.356 96.160 176.400 V 180.400 C 96.160 180.444 96.196 180.480 96.240 180.480 H 100.160 C 100.240 180.480 100.160 180.400 100.160 180.480 V 191.400 V 195.400 C 100.160 195.444 100.196 195.480 100.240 195.480" stroke="rgb(0,0,0)" stroke-width="0.16" />
</g>
<g id="p-3" style="fill:none;stroke-linecap:round;stroke-linejoin:round;">
  <text dominant-baseline="hanging" font-size="4px" style="font-family: sans-serif ; font-weight: normal; font-style: normal; fill: rgb(255,0,0)" text-anchor="middle" transform="matrix( 1.000 0.000 0.000 1.000 128.740 104.320 )">Wall 4</text><path d="M 100.240 135.320 H 108.740 C 108.784 135.320 108.820 135.284 108.820 135.240 V 131.320 C 108.820 131.240 108.740 131.320 108.820 131.320 H 112.660 C 112.740 131.320 112.660 131.240 112.660 131.320 V 135.240 C 112.660 135.284 112.696 135.320 112.740 135.320 H 120.740 C 120.784 135.320 120.820 135.284 120.820 135.240 V 131.320 C 120.820 131.240 120.740 131.320 120.820 131.320 H 124.660 C 124.740 131.320 124.660 131.240 124.660 131.320 V 135.240 C 124.660 135.284 124.696 135.320 124.740 135.320 H 132.740 C 132.784 135.320 132.820 135.284 132.820 135.240 V 131.320 C 132.820 131.240 132.740 131.320 132.820 131.320 H 136.660 C 136.740 131.320 136.660 131.240 136.660 131.320 V 135.240 C 136.660 135.284 136.696 135.320 136.740 135.320 H 144.740 C 144.784 135.320 144.820 135.284 144.820 135.240 V 131.320 C 144.820 131.240 144.740 131.320 144.820 131.320 H 148.660 C 148.740 131.320 148.660 131.240 148.660 131.320 V 135.240 C 148.660 135.284 148.696 135.320 148.740 135.320 H 157.240 C 157.284 135.320 157.320 135.284 157.320 135.240 V 131.240 V 120.320 C 157.320 120.240 157.240 120.320 157.320 120.320 H 161.240 C 161.284 120.320 161.320 120.284 161.320 120.240 V 116.240 C 161.320 116.196 161.284 116.160 161.240 116.160 H 157.320 C 157.240 116.160 157.320 116.240 157.320 116.160 V 108.320 C 157.320 108.240 157.240 108.320 157.320 108.320 H 161.240 C 161.284 108.320 161.320 108.284 161.320 108.240 V 104.240 C 161.320 104.196 161.284 104.160 161.240 104.160 H 157.320 C 157.240 104.160 157.320 104.240 157.320 104.160 V 96.320 C 157.320 96.240 157.240 96.320 157.320 96.320 H 161.240 C 161.284 96.320 161.320 96.284 161.320 96.240 V 92.240 C 161.320 92.196 161.284 92.160 161.240 92.160 H 157.320 C 157.240 92.160 157.320 92.240 157.320 92.160 V 81.240 V 77.240 C 157.320 77.196 157.284 77.160 157.240 77.160 H 148.740 C 148.696 77.160 148.660 77.196 148.660 77.240 V 81.160 C 148.660 81.240 148.740 81.160 148.660 81.160 H 144.820 C 144.740 81.160 144.820 81.240 144.820 81.160 V 77.240 C 144.820 77.196 144.784 77.160 144.740 77.160 H 136.740 C 136.696 77.160 136.660 77.196 136.660 77.240 V 81.160 C 136.660 81.240 136.740 81.160 136.660 81.160 H 132.820 C 132.740 81.160 132.820 81.240 132.820 81.160 V 77.240 C 132.820 77.196 132.784 77.160 132.740 77.160 H 124.740 C 124.696 77.160 124.660 77.196 124.660 77.240 V 81.160 C 124.660 81.240 124.740 81.160 124.660 81.160 H 120.820 C 120.740 81.160 120.820 81.240 120.820 81.160 V 77.240 C 120.820 77.196 120.784 77.160 120.740 77.160 H 112.740 C 112.696 77.160 112.660 77.196 112.660 77.240 V 81.160 C 112.660 81.240 112.740 81.160 112.660 81.160 H 108.820 C 108.740 81.160 108.820 81.240 108.820 81.160 V 77.240 C 108.820 77.196 108.784 77.160 108.740 77.160 H 100.240 C 100.196 77.160 100.160 77.196 100.160 77.240 V 81.240 V 92.160 C 100.160 92.240 100.240 92.160 100.160 92.160 H 96.240 C 96.196 92.160 96.160 92.196 96.160 92.240 V 96.240 C 96.160 96.284 96.196 96.320 96.240 96.320 H 100.160 C 100.240 96.320 100.160 96.240 100.160 96.320 V 104.160 C 100.160 104.240 100.240 104.160 100.160 104.160 H 96.240 C 96.196 104.160 96.160 104.196 96.160 104.240 V 108.240 C 96.160 108.284 96.196 108.320 96.240 108.320 H 100.160 C 100.240 108.320 100.160 108.240 100.160 108.320 V 116.160 C 100.160 116.240 100.240 116.160 100.160 116.160 H 96.240 C 96.196 116.160 96.160 116.196 96.160 116.240 V 120.240 C 96.160 120.284 96.196 120.320 96.240 120.320 H 100.160 C 100.240 120.320 100.160 120.240 100.160 120.320 V 131.240 V 135.240 C 100.160 135.284 100.196 135.320 100.240 135.320" stroke="rgb(0,0,0)" stroke-width="0.16" />
</g>
<g id="p-4" style="fill:none;stroke-linecap:round;stroke-linejoin:round;">
  <text dominant-baseline="hanging" font-size="4px" style="font-family: sans-serif ; font-weight: normal; font-style: normal; fill: rgb(255,0,0)" text-anchor="middle" transform="matrix( 1.000 0.000 0.000 1.000 52.080 104.320 )">Wall 3</text><path d="M 14.080 135.320 H 26.080 C 26.124 135.320 26.160 135.284 26.160 135.240 V 131.320 C 26.160 131.240 26.080 131.320 26.160 131.320 H 30.000 C 30.080 131.320 30.000 131.240 30.000 131.320 V 135.240 C 30.000 135.284 30.036 135.320 30.080 135.320 H 38.080 C 38.124 135.320 38.160 135.284 38.160 135.240 V 131.320 C 38.160 131.240 38.080 131.320 38.160 131.320 H 42.000 C 42.080 131.320 42.000 131.240 42.000 131.320 V 135.240 C 42.000 135.284 42.036 135.320 42.080 135.320 H 50.080 C 50.124 135.320 50.160 135.284 50.160 135.240 V 131.320 C 50.160 131.240 50.080 131.320 50.160 131.320 H 54.000 C 54.080 131.320 54.000 131.240 54.000 131.320 V 135.240 C 54.000 135.284 54.036 135.320 54.080 135.320 H 62.080 C 62.124 135.320 62.160 135.284 62.160 135.240 V 131.320 C 62.160 131.240 62.080 131.320 62.160 131.320 H 66.000 C 66.080 131.320 66.000 131.240 66.000 131.320 V 135.240 C 66.000 135.284 66.036 135.320 66.080 135.320 H 74.080 C 74.124 135.320 74.160 135.284 74.160 135.240 V 131.320 C 74.160 131.240 74.080 131.320 74.160 131.320 H 78.000 C 78.080 131.320 78.000 131.240 78.000 131.320 V 135.240 C 78.000 135.284 78.036 135.320 78.080 135.320 H 90.080 H 94.080 C 94.124 135.320 94.160 135.284 94.160 135.240 V 131.240 V 120.240 C 94.160 120.196 94.124 120.160 94.080 120.160 H 90.160 C 90.080 120.160 90.160 120.240 90.160 120.160 V 116.320 C 90.160 116.240 90.080 116.320 90.160 116.320 H 94.080 C 94.124 116.320 94.160 116.284 94.160 116.240 V 108.240 C 94.160 108.196 94.124 108.160 94.080 108.160 H 90.160 C 90.080 108.160 90.160 108.240 90.160 108.160 V 104.320 C 90.160 104.240 90.080 104.320 90.160 104.320 H 94.080 C 94.124 104.320 94.160 104.284 94.160 104.240 V 96.240 C 94.160 96.196 94.124 96.160 94.080 96.160 H 90.160 C 90.080 96.160 90.160 96.240 90.160 96.160 V 92.320 C 90.160 92.240 90.080 92.320 90.160 92.320 H 94.080 C 94.124 92.320 94.160 92.284 94.160 92.240 V 81.240 V 77.240 C 94.160 77.196 94.124 77.160 94.080 77.160 H 90.080 H 78.080 C 78.036 77.160 78.000 77.196 78.000 77.240 V 81.160 C 78.000 81.240 78.080 81.160 78.000 81.160 H 74.160 C 74.080 81.160 74.160 81.240 74.160 81.160 V 77.240 C 74.160 77.196 74.124 77.160 74.080 77.160 H 66.080 C 66.036 77.160 66.000 77.196 66.000 77.240 V 81.160 C 66.000 81.240 66.080 81.160 66.000 81.160 H 62.160 C 62.080 81.160 62.160 81.240 62.160 81.160 V 77.240 C 62.160 77.196 62.124 77.160 62.080 77.160 H 54.080 C 54.036 77.160 54.000 77.196 54.000 77.240 V 81.160 C 54.000 81.240 54.080 81.160 54.000 81.160 H 50.160 C 50.080 81.160 50.160 81.240 50.160 81.160 V 77.240 C 50.160 77.196 50.124 77.160 50.080 77.160 H 42.080 C 42.036 77.160 42.000 77.196 42.000 77.240 V 81.160 C 42.000 81.240 42.080 81.160 42.000 81.160 H 38.160 C 38.080 81.160 38.160 81.240 38.160 81.160 V 77.240 C 38.160 77.196 38.124 77.160 38.080 77.160 H 30.080 C 30.036 77.160 30.000 77.196 30.000 77.240 V 81.160 C 30.000 81.240 30.080 81.160 30.000 81.160 H 26.160 C 26.080 81.160 26.160 81.240 26.160 81.160 V 77.240 C 26.160 77.196 26.124 77.160 26.080 77.160 H 14.080 H 10.080 C 10.036 77.160 10.000 77.196 10.000 77.240 V 81.240 V 92.240 C 10.000 92.284 10.036 92.320 10.080 92.320 H 14.000 C 14.080 92.320 14.000 92.240 14.000 92.320 V 96.160 C 14.000 96.240 14.080 96.160 14.000 96.160 H 10.080 C 10.036 96.160 10.000 96.196 10.000 96.240 V 104.240 C 10.000 104.284 10.036 104.320 10.080 104.320 H 14.000 C 14.080 104.320 14.000 104.240 14.000 104.320 V 108.160 C 14.000 108.240 14.080 108.160 14.000 108.160 H 10.080 C 10.036 108.160 10.000 108.196 10.000 108.240 V 116.240 C 10.000 116.284 10.036 116.320 10.080 116.320 H 14.000 C 14.080 116.320 14.000 116.240 14.000 116.320 V 120.160 C 14.000 120.240 14.080 120.160 14.000 120.160 H 10.080 C 10.036 120.160 10.000 120.196 10.000 120.240 V 131.240 V 135.240 C 10.000 135.284 10.036 135.320 10.080 135.320 H 14.080" stroke="rgb(0,0,0)" stroke-width="0.16" />
</g>
<g id="p-5" style="fill:none;stroke-linecap:round;stroke-linejoin:round;">
  <text dominant-baseline="hanging" font-size="4px" style="font-family: sans-serif ; font-weight: normal; font-style: normal; fill: rgb(255,0,0)" text-anchor="middle" transform="matrix( 1.000 0.000 0.000 1.000 52.080 40.660 )">Top</text><path d="M 14.080 71.160 H 26.000 C 26.080 71.160 26.000 71.080 26.000 71.160 V 75.080 C 26.000 75.124 26.036 75.160 26.080 75.160 H 30.080 C 30.124 75.160 30.160 75.124 30.160 75.080 V 71.160 C 30.160 71.080 30.080 71.160 30.160 71.160 H 38.000 C 38.080 71.160 38.000 71.080 38.000 71.160 V 75.080 C 38.000 75.124 38.036 75.160 38.080 75.160 H 42.080 C 42.124 75.160 42.160 75.124 42.160 75.080 V 71.160 C 42.160 71.080 42.080 71.160 42.160 71.160 H 50.000 C 50.080 71.160 50.000 71.080 50.000 71.160 V 75.080 C 50.000 75.124 50.036 75.160 50.080 75.160 H 54.080 C 54.124 75.160 54.160 75.124 54.160 75.080 V 71.160 C 54.160 71.080 54.080 71.160 54.160 71.160 H 62.000 C 62.080 71.160 62.000 71.080 62.000 71.160 V 75.080 C 62.000 75.124 62.036 75.160 62.080 75.160 H 66.080 C 66.124 75.160 66.160 75.124 66.160 75.080 V 71.160 C 66.160 71.080 66.080 71.160 66.160 71.160 H 74.000 C 74.080 71.160 74.000 71.080 74.000 71.160 V 75.080 C 74.000 75.124 74.036 75.160 74.080 75.160 H 78.080 C 78.124 75.160 78.160 75.124 78.160 75.080 V 71.160 C 78.160 71.080 78.080 71.160 78.160 71.160 H 90.080 C 90.124 71.160 90.160 71.124 90.160 71.080 V 62.660 C 90.160 62.580 90.080 62.660 90.160 62.660 H 94.080 C 94.124 62.660 94.160 62.624 94.160 62.580 V 58.580 C 94.160 58.536 94.124 58.500 94.080 58.500 H 90.160 C 90.080 58.500 90.160 58.580 90.160 58.500 V 50.660 C 90.160 50.580 90.080 50.660 90.160 50.660 H 94.080 C 94.124 50.660 94.160 50.624 94.160 50.580 V 46.580 C 94.160 46.536 94.124 46.500 94.080 46.500 H 90.160 C 90.080 46.500 90.160 46.580 90.160 46.500 V 38.660 C 90.160 38.580 90.080 38.660 90.160 38.660 H 94.080 C 94.124 38.660 94.160 38.624 94.160 38.580 V 34.580 C 94.160 34.536 94.124 34.500 94.080 34.500 H 90.160 C 90.080 34.500 90.160 34.580 90.160 34.500 V 26.660 C 90.160 26.580 90.080 26.660 90.160 26.660 H 94.080 C 94.124 26.660 94.160 26.624 94.160 26.580 V 22.580 C 94.160 22.536 94.124 22.500 94.080 22.500 H 90.160 C 90.080 22.500 90.160 22.580 90.160 22.500 V 14.080 C 90.160 14.036 90.124 14.000 90.080 14.000 H 78.160 C 78.080 14.000 78.160 14.080 78.160 14.000 V 10.080 C 78.160 10.036 78.124 10.000 78.080 10.000 H 74.080 C 74.036 10.000 74.000 10.036 74.000 10.080 V 14.000 C 74.000 14.080 74.080 14.000 74.000 14.000 H 66.160 C 66.080 14.000 66.160 14.080 66.160 14.000 V 10.080 C 66.160 10.036 66.124 10.000 66.080 10.000 H 62.080 C 62.036 10.000 62.000 10.036 62.000 10.080 V 14.000 C 62.000 14.080 62.080 14.000 62.000 14.000 H 54.160 C 54.080 14.000 54.160 14.080 54.160 14.000 V 10.080 C 54.160 10.036 54.124 10.000 54.080 10.000 H 50.080 C 50.036 10.000 50.000 10.036 50.000 10.080 V 14.000 C 50.000 14.080 50.080 14.000 50.000 14.000 H 42.160 C 42.080 14.000 42.160 14.080 42.160 14.000 V 10.080 C 42.160 10.036 42.124 10.000 42.080 10.000 H 38.080 C 38.036 10.000 38.000 10.036 38.000 10.080 V 14.000 C 38.000 14.080 38.080 14.000 38.000 14.000 H 30.160 C 30.080 14.000 30.160 14.080 30.160 14.000 V 10.080 C 30.160 10.036 30.124 10.000 30.080 10.000 H 26.080 C 26.036 10.000 26.000 10.036 26.000 10.080 V 14.000 C 26.000 14.080 26.080 14.000 26.000 14.000 H 14.080 C 14.036 14.000 14.000 14.036 14.000 14.080 V 22.500 C 14.000 22.580 14.080 22.500 14.000 22.500 H 10.080 C 10.036 22.500 10.000 22.536 10.000 22.580 V 26.580 C 10.000 26.624 10.036 26.660 10.080 26.660 H 14.000 C 14.080 26.660 14.000 26.580 14.000 26.660 V 34.500 C 14.000 34.580 14.080 34.500 14.000 34.500 H 10.080 C 10.036 34.500 10.000 34.536 10.000 34.580 V 38.580 C 10.000 38.624 10.036 38.660 10.080 38.660 H 14.000 C 14.080 38.660 14.000 38.580 14.000 38.660 V 46.500 C 14.000 46.580 14.080 46.500 14.000 46.500 H 10.080 C 10.036 46.500 10.000 46.536 10.000 46.580 V 50.580 C 10.000 50.624 10.036 50.660 10.080 50.660 H 14.000 C 14.080 50.660 14.000 50.580 14.000 50.660 V 58.500 C 14.000 58.580 14.080 58.500 14.000 58.500 H 10.080 C 10.036 58.500 10.000 58.536 10.000 58.580 V 62.580 C 10.000 62.624 10.036 62.660 10.080 62.660 H 14.000 C 14.080 62.660 14.000 62.580 14.000 62.660 V 71.080 C 14.000 71.124 14.036 71.160 14.080 71.160" stroke="rgb(0,0,0)" stroke-width="0.16" />
</g>
<g id="p-6" style="fill:none;stroke-linecap:round;stroke-linejoin:round;">
  <text dominant-baseline="hanging" font-size="4px" style="font-family: sans-serif ; font-weight: normal; font-style: normal; fill: rgb(255,0,0)" text-anchor="middle" transform="matrix( 1.000 0.000 0.000 1.000 138.240 40.660 )">Bottom</text><path d="M 100.240 71.160 H 112.160 C 112.240 71.160 112.160 71.080 112.160 71.160 V 75.080 C 112.160 75.124 112.196 75.160 112.240 75.160 H 116.240 C 116.284 75.160 116.320 75.124 116.320 75.080 V 71.160 C 116.320 71.080 116.240 71.160 116.320 71.160 H 124.160 C 124.240 71.160 124.160 71.080 124.160 71.160 V 75.080 C 124.160 75.124 124.196 75.160 124.240 75.160 H 128.240 C 128.284 75.160 128.320 75.124 128.320 75.080 V 71.160 C 128.320 71.080 128.240 71.160 128.320 71.160 H 136.160 C 136.240 71.160 136.160 71.080 136.160 71.160 V 75.080 C 136.160 75.124 136.196 75.160 136.240 75.160 H 140.240 C 140.284 75.160 140.320 75.124 140.320 75.080 V 71.160 C 140.320 71.080 140.240 71.160 140.320 71.160 H 148.160 C 148.240 71.160 148.160 71.080 148.160 71.160 V 75.080 C 148.160 75.124 148.196 75.160 148.240 75.160 H 152.240 C 152.284 75.160 152.320 75.124 152.320 75.080 V 71.160 C 152.320 71.080 152.240 71.160 152.320 71.160 H 160.160 C 160.240 71.160 160.160 71.080 160.160 71.160 V 75.080 C 160.160 75.124 160.196 75.160 160.240 75.160 H 164.240 C 164.284 75.160 164.320 75.124 164.320 75.080 V 71.160 C 164.320 71.080 164.240 71.160 164.320 71.160 H 176.240 C 176.284 71.160 176.320 71.124 176.320 71.080 V 62.660 C 176.320 62.580 176.240 62.660 176.320 62.660 H 180.240 C 180.284 62.660 180.320 62.624 180.320 62.580 V 58.580 C 180.320 58.536 180.284 58.500 180.240 58.500 H 176.320 C 176.240 58.500 176.320 58.580 176.320 58.500 V 50.660 C 176.320 50.580 176.240 50.660 176.320 50.660 H 180.240 C 180.284 50.660 180.320 50.624 180.320 50.580 V 46.580 C 180.320 46.536 180.284 46.500 180.240 46.500 H 176.320 C 176.240 46.500 176.320 46.580 176.320 46.500 V 38.660 C 176.320 38.580 176.240 38.660 176.320 38.660 H 180.240 C 180.284 38.660 180.320 38.624 180.320 38.580 V 34.580 C 180.320 34.536 180.284 34.500 180.240 34.500 H 176.320 C 176.240 34.500 176.320 34.580 176.320 34.500 V 26.660 C 176.320 26.580 176.240 26.660 176.320 26.660 H 180.240 C 180.284 26.660 180.320 26.624 180.320 26.580 V 22.580 C 180.320 22.536 180.284 22.500 180.240 22.500 H 176.320 C 176.240 22.500 176.320 22.580 176.320 22.500 V 14.080 C 176.320 14.036 176.284 14.000 176.240 14.000 H 164.320 C 164.240 14.000 164.320 14.080 164.320 14.000 V 10.080 C 164.320 10.036 164.284 10.000 164.240 10.000 H 160.240 C 160.196 10.000 160.160 10.036 160.160 10.080 V 14.000 C 160.160 14.080 160.240 14.000 160.160 14.000 H 152.320 C 152.240 14.000 152.320 14.080 152.320 14.000 V 10.080 C 152.320 10.036 152.284 10.000 152.240 10.000 H 148.240 C 148.196 10.000 148.160 10.036 148.160 10.080 V 14.000 C 148.160 14.080 148.240 14.000 148.160 14.000 H 140.320 C 140.240 14.000 140.320 14.080 140.320 14.000 V 10.080 C 140.320 10.036 140.284 10.000 140.240 10.000 H 136.240 C 136.196 10.000 136.160 10.036 136.160 10.080 V 14.000 C 136.160 14.080 136.240 14.000 136.160 14.000 H 128.320 C 128.240 14.000 128.320 14.080 128.320 14.000 V 10.080 C 128.320 10.036 128.284 10.000 128.240 10.000 H 124.240 C 124.196 10.000 124.160 10.036 124.160 10.080 V 14.000 C 124.160 14.080 124.240 14.000 124.160 14.000 H 116.320 C 116.240 14.000 116.320 14.080 116.320 14.000 V 10.080 C 116.320 10.036 116.284 10.000 116.240 10.000 H 112.240 C 112.196 10.000 112.160 10.036 112.160 10.080 V 14.000 C 112.160 14.080 112.240 14.000 112.160 14.000 H 100.240 C 100.196 14.000 100.160 14.036 100.160 14.080 V 22.500 C 100.160 22.580 100.240 22.500 100.160 22.500 H 96.240 C 96.196 22.500 96.160 22.536 96.160 22.580 V 26.580 C 96.160 26.624 96.196 26.660 96.240 26.660 H 100.160 C 100.240 26.660 100.160 26.580 100.160 26.660 V 34.500 C 100.160 34.580 100.240 34.500 100.160 34.500 H 96.240 C 96.196 34.500 96.160 34.536 96.160 34.580 V 38.580 C 96.160 38.624 96.196 38.660 96.240 38.660 H 100.160 C 100.240 38.660 100.160 38.580 100.160 38.660 V 46.500 C 100.160 46.580 100.240 46.500 100.160 46.500 H 96.240 C 96.196 46.500 96.160 46.536 96.160 46.580 V 50.580 C 96.160 50.624 96.196 50.660 96.240 50.660 H 100.160 C 100.240 50.660 100.160 50.580 100.160 50.660 V 58.500 C 100.160 58.580 100.240 58.500 100.160 58.500 H 96.240 C 96.196 58.500 96.160 58.536 96.160 58.580 V 62.580 C 96.160 62.624 96.196 62.660 96.240 62.660 H 100.160 C 100.240 62.660 100.160 62.580 100.160 62.660 V 71.080 C 100.160 71.124 100.196 71.160 100.240 71.160" stroke="rgb(0,0,0)" stroke-width="0.16" />
</g>
</svg>